<?xml version="1.0" encoding="utf-8"?>
<!-- Generator: Adobe Illustrator 20.0.0, SVG Export Plug-In . SVG Version: 6.00 Build 0)  -->
<svg version="1.1" id="Layer_1" xmlns="http://www.w3.org/2000/svg" xmlns:xlink="http://www.w3.org/1999/xlink" x="0px" y="0px"
	 viewBox="0 0 93.7 72.7" style="enable-background:new 0 0 93.7 72.7;" xml:space="preserve">
<style type="text/css">
	.st0{fill:#FFFFFF;}
</style>
<g>
	<path class="st0" d="M85,56.8l-10.5-4.7c-0.6-0.3-1.1-0.1-1.4,0.5c-1.8,4.3-4.9,7.5-10.5,7.5c-2.3,0-4.2-0.6-5.8-1.6
		c0,0.1-0.1,0.3-0.1,0.4c-1.4,4.3-3.6,8.1-6.4,11.2c3.5,1.7,7.6,2.6,12.2,2.6c11.1,0,19.3-5.4,22.9-14.6C85.8,57.5,85.6,57,85,56.8"
		/>
	<path class="st0" d="M85.5,19.2C81.8,10,73.7,4.6,62.5,4.6c-7.5,0-13.7,2.3-18.1,6.9l0,0c-2.3,2.4-4.1,5.5-5.3,9.3
		c-1.3,3.9-1.8,7.1-1.8,15.7l0,0c0,0.7,0,1.4,0,2.1c0,8.6-0.3,11.8-1.1,14.1c-1.5,4.5-4.9,7.3-10.4,7.3c-5.4,0-8.9-2.7-10.4-7.3
		c-0.8-2.3-1.1-5.5-1.1-14.1s0.3-11.8,1.1-14.1c1.5-4.5,4.9-7.3,10.4-7.3c2.5,0,4.6,0.6,6.3,1.7c0-0.1,0.1-0.3,0.1-0.4
		c1.4-4.4,3.6-8.1,6.3-11.2c-3.7-1.8-8-2.7-12.7-2.7c-11.5,0-20.6,5.3-24,16C0.3,25.1,0,28.8,0,38.6s0.4,13.5,1.8,18
		c3.4,10.6,12.5,16,24,16c7.6,0,14.1-2.3,18.6-6.9l0,0c2.4-2.4,4.2-5.4,5.4-9.1c1.4-4.2,1.8-7.7,1.8-16.1l0,0c0-0.6,0-1.2,0-1.9
		c0-9.4,0.3-11.7,1.1-14.1c1.5-4.5,4.7-7.3,9.9-7.3c5.5,0,8.6,3.2,10.5,7.5c0.3,0.6,0.8,0.8,1.4,0.5L85,20.4
		C85.6,20.2,85.8,19.7,85.5,19.2"/>
	<polygon class="st0" points="87.2,4.6 87.1,4.5 87.1,0.6 87.1,0.6 85.8,0.6 85.8,0.5 85.8,0.1 85.8,0 89,0 89.1,0.1 89.1,0.5 
		89,0.6 87.8,0.6 87.7,0.6 87.7,4.5 87.7,4.6 	"/>
	<polygon class="st0" points="89.8,0.1 89.9,0 90.3,0 90.4,0.1 91.8,3.2 91.8,3.2 93.1,0.1 93.2,0 93.7,0 93.7,0.1 93.7,4.5 
		93.7,4.6 93.2,4.6 93.2,4.5 93.2,1.4 93.2,1.4 92,3.9 91.9,4 91.6,4 91.5,3.9 90.4,1.4 90.3,1.4 90.3,4.5 90.3,4.6 89.9,4.6 
		89.8,4.5 	"/>
</g>
</svg>
